<svg xmlns="http://www.w3.org/2000/svg" viewBox="0 0 23.96 23.96"><defs><style>.cls-1{fill:#333;}.cls-2{fill:none;stroke:#333;stroke-miterlimit:10;}</style></defs><title>linkedin</title><g id="Layer_2" data-name="Layer 2"><g id="svg4647"><g id="layer1"><path id="rect5222" class="cls-1" d="M6.83,4.25A1.77,1.77,0,0,1,8.67,6,1.78,1.78,0,0,1,6.83,7.64,1.77,1.77,0,0,1,5,6,1.77,1.77,0,0,1,6.83,4.25Zm9.52,4.47c2.17,0,3.65,1.35,3.65,3.88v6.07H16.71V12.6a1.31,1.31,0,0,0-1.48-1.36c-1.81,0-1.81,1.82-1.81,2.49v4.93h-3.3V8.79h3.3v1.64a3.26,3.26,0,0,1,2.93-1.71ZM5.19,8.79H8.48v9.87H5.19Z"/></g><circle class="cls-2" cx="11.98" cy="11.98" r="11.48"/></g></g></svg>