<svg xmlns="http://www.w3.org/2000/svg" viewBox="0 0 23.96 23.96"><defs><style>.cls-1{fill:#333;}.cls-2{fill:none;stroke:#333;stroke-miterlimit:10;}</style></defs><title>telegram</title><g id="Layer_2" data-name="Layer 2"><g id="svg4647"><g id="layer1"><path id="rect5234" class="cls-1" d="M17.89,5.7c.52,0,.67.54.55,1.12L16.1,17.65c-.15.7-.68.79-1.32.33l-3.3-2.41L9.67,17.32c-.29.27-.82.35-1-.13L7.33,13,4.11,12c-1.24-.39-.35-.95.07-1.11L17.24,5.82a1.41,1.41,0,0,1,.65-.12ZM15.57,8a.87.87,0,0,0-.25.1L8,12.72s-.1,0,0,.16L9.1,16.54l.24-2.49a.17.17,0,0,1,.06-.12l6.22-5.59c.35-.3.19-.43,0-.39Z"/></g><circle class="cls-2" cx="11.98" cy="11.98" r="11.48"/></g></g></svg>
