<svg xmlns="http://www.w3.org/2000/svg" viewBox="0 0 23.96 23.96"><defs><style>.cls-1{fill:#333;}.cls-2{fill:none;stroke:#333;stroke-miterlimit:10;}</style></defs><title>Asset 1</title><g id="Layer_2" data-name="Layer 2"><g id="svg4647"><g id="layer1"><path id="rect5230" class="cls-1" d="M15.4,6.31a3.18,3.18,0,0,1,2.3,1,6.11,6.11,0,0,0,1.89-.77,3.26,3.26,0,0,1-1.25,1.71A6.56,6.56,0,0,0,20,7.81a7,7,0,0,1-1.45,1.51.71.71,0,0,1,0,.14.66.66,0,0,1,0,.14s0,.07,0,.11a8.9,8.9,0,0,1-8.9,8.9h0A8.82,8.82,0,0,1,5,17.28,6.5,6.5,0,0,0,9.45,16,3,3,0,0,1,6.59,13.8a3.89,3.89,0,0,0,1.38,0,3.16,3.16,0,0,1-2.48-3.1A3.2,3.2,0,0,0,6.87,11,3.1,3.1,0,0,1,6,6.87a8.71,8.71,0,0,0,6.37,3.29,2.74,2.74,0,0,1-.08-.7A3.15,3.15,0,0,1,15.4,6.31Z"/><circle class="cls-2" cx="11.98" cy="11.98" r="11.48"/></g></g></g></svg>